# Blender v2.93.1 OBJ File: 'Stone3.2.blend'
# www.blender.org
mtllib Stone3.2.mtl
o Stone3.2_Cube.002
v 0.622148 0.591502 0.671751
v 0.642891 0.350167 1.027054
v 0.865749 -0.532274 0.085156
v 0.607538 0.283526 1.143458
v -0.097568 0.261105 1.491314
v -0.184135 -0.430670 1.573660
v 0.205273 0.412979 -1.234877
v 0.867173 -0.458936 -0.140620
v -0.646943 -0.154538 -0.822454
v -0.134404 0.965195 0.444182
v -0.722757 -0.061454 0.787131
v -0.325546 0.578321 1.113676
v 0.090830 -0.149112 -1.379139
v 0.144989 0.275755 -1.324124
v -0.547136 -0.227177 -1.040800
v -0.722930 -0.347460 -0.345675
v -0.654946 0.154352 -0.553953
v -0.753976 -0.064276 0.264888
v 0.057502 0.499188 -1.217680
v 0.647642 0.602084 0.253664
v 0.734386 0.364137 -0.406593
v -0.141331 0.988360 0.079368
v -0.222743 0.408104 -1.093592
v -0.463258 0.502361 -0.633454
v -0.159354 0.967992 -0.026075
v 0.830776 -0.621665 0.196559
v -0.669564 -0.536685 -0.219611
v -0.313672 -0.573804 1.448962
v 0.544427 -0.617429 1.226310
v 0.038851 -0.592978 1.473398
v 0.262987 -0.577423 -1.079215
v 0.727446 -0.610228 -0.348975
v -0.584407 -0.555512 1.100113
v -0.218237 -0.549355 -1.287792
v -0.327703 -0.544150 -1.226014
vt 0.559935 0.651794
vt 0.651967 0.635939
vt 0.705997 0.787344
vt 0.511515 0.715426
vt 0.411281 0.239086
vt 0.429452 0.079070
vt 0.478484 0.014248
vt 0.641092 0.000000
vt 0.743685 0.094692
vt 0.792116 0.175726
vt 0.790545 0.263140
vt 0.647946 0.382941
vt 0.480001 0.382941
vt 0.456816 0.363070
vt 0.186491 0.424146
vt 0.199524 0.309071
vt 0.282188 0.226249
vt 0.411281 0.253726
vt 0.409490 0.273621
vt 0.375170 0.341209
vt 0.285422 0.778498
vt 0.167096 0.719522
vt 0.277479 0.650275
vt 0.942657 0.816807
vt 0.712905 0.762820
vt 0.733416 0.717633
vt 0.956803 0.761805
vt 0.615163 0.414205
vt 0.705997 0.473049
vt 0.648892 0.531285
vt 0.586877 0.465078
vt 0.715677 0.663144
vt 0.705997 0.439390
vt 0.805151 0.382941
vt 0.862627 0.390452
vt 0.903820 0.459159
vt 0.744488 0.685339
vt 0.053998 0.712619
vt 0.000000 0.731747
vt 0.016845 0.695733
vt 0.791646 1.000000
vt 0.749478 0.982293
vt 0.705997 0.777127
vt 0.956803 0.926803
vt 0.091315 0.133355
vt 0.156320 0.434340
vt 0.144272 0.429712
vt 0.033408 0.305738
vt 0.000000 0.207785
vt 0.043700 0.137878
vt 0.542252 0.464342
vt 0.459347 0.681066
vt 0.411281 0.581252
vt 0.423445 0.446721
vt 0.448550 0.430658
vt 0.021213 0.516890
vt 0.236505 0.450376
vt 0.278707 0.493311
vt 0.275195 0.039724
vt 0.318198 0.003384
vt 0.411281 0.012313
vt 0.237939 0.000000
vt 0.150537 0.002168
vt 0.005357 0.070632
vt 0.028606 0.020324
vt 0.592323 0.382941
vt 0.259014 0.434966
vt 0.285422 0.434340
vt 0.920995 0.477833
vt 0.920995 0.717633
vt 0.760558 0.710009
vn -0.4399 0.8058 -0.3965
vn -0.0536 -0.9985 -0.0108
vn 0.2387 0.8097 0.5361
vn 0.3336 -0.4471 -0.8299
vn 0.4304 0.9013 0.0491
vn -0.9903 0.0906 -0.1050
vn 0.9817 0.1792 0.0644
vn 0.1798 0.4796 -0.8589
vn 0.4680 0.8485 -0.2470
vn -0.8613 0.5062 0.0441
vn -0.8011 0.3621 -0.4766
vn -0.4762 0.1772 -0.8613
vn 0.8424 -0.0367 -0.5376
vn 0.4405 0.0516 0.8963
vn -0.0878 -0.6080 0.7891
vn -0.7742 0.1695 0.6098
vn -0.9704 -0.2342 0.0593
vn -0.8614 -0.4179 -0.2887
vn 0.8287 -0.5338 -0.1682
vn 0.9625 -0.0428 0.2678
usemtl Base
s off
f 23/1/1 24/2/1 25/3/1 19/4/1
f 31/5/2 32/6/2 26/7/2 29/8/2 30/9/2 28/10/2 33/11/2 27/12/2 35/13/2 34/14/2
f 10/15/3 12/16/3 5/17/3 4/18/3 2/19/3 1/20/3
f 34/21/4 13/22/4 31/23/4
f 20/24/5 22/25/5 10/26/5 1/27/5
f 16/28/6 18/29/6 17/30/6 9/31/6
f 8/32/7 21/33/7 20/34/7 1/35/7 2/36/7 3/37/7
f 14/38/8 19/39/8 7/40/8
f 7/41/9 19/42/9 25/43/9 22/25/9 20/24/9 21/44/9
f 11/45/10 12/16/10 10/15/10 22/46/10 25/47/10 24/48/10 17/49/10 18/50/10
f 9/31/11 17/30/11 24/2/11 23/1/11 15/51/11
f 19/4/12 14/52/12 13/53/12 34/54/12 35/55/12 15/51/12 23/1/12
f 7/40/13 21/56/13 8/57/13 32/58/13 31/23/13 13/22/13 14/38/13
f 5/17/14 6/59/14 30/60/14 29/61/14 4/18/14
f 6/59/15 28/62/15 30/60/15
f 11/45/16 33/63/16 28/62/16 6/59/16 5/17/16 12/16/16
f 16/64/17 27/65/17 33/63/17 11/45/17 18/50/17
f 16/28/18 9/31/18 15/51/18 35/55/18 27/66/18
f 8/57/19 3/67/19 26/68/19 32/58/19
f 4/69/20 29/70/20 26/71/20 3/37/20 2/36/20
