# Blender v2.93.1 OBJ File: 'Tree3.3.blend'
# www.blender.org
mtllib Tree3.3.mtl
o Trunk3.3_Cylinder.001
v 0.009128 -0.175871 -0.491826
v 0.009128 2.299722 -0.276397
v 0.319052 -0.175871 -0.363451
v 0.166721 2.299722 -0.211119
v 0.447427 -0.175871 -0.053527
v 0.231998 2.299722 -0.053527
v 0.319052 -0.175871 0.256398
v 0.166721 2.299722 0.104066
v 0.009128 -0.175871 0.384773
v 0.009128 2.299722 0.169343
v -0.300797 -0.175871 0.256398
v -0.148465 2.299722 0.104066
v -0.429172 -0.175871 -0.053527
v -0.213742 2.299722 -0.053527
v -0.300797 -0.175871 -0.363451
v -0.148465 2.299722 -0.211119
v 0.009128 0.470012 -0.440408
v 0.282694 0.470012 -0.327093
v 0.396009 0.470012 -0.053527
v 0.282694 0.470012 0.220040
v 0.009128 0.470012 0.333355
v -0.264439 0.470012 0.220040
v -0.377753 0.470012 -0.053527
v -0.264439 0.470012 -0.327093
vt 0.453897 0.215688
vt 0.432993 0.827147
vt 0.376183 0.827147
vt 0.355280 0.215688
vt 0.336012 0.830278
vt 0.285547 0.221123
vt 0.716765 0.218969
vt 0.676142 0.829435
vt 0.619361 0.827602
vt 0.618199 0.215787
vt 0.579110 0.829435
vt 0.548327 0.218969
vt 0.253904 0.221123
vt 0.203439 0.830278
vt 0.163268 0.827147
vt 0.184171 0.215688
vt 0.106458 0.827147
vt 0.085554 0.215688
vt 0.770446 0.406877
vt 0.730275 0.366706
vt 0.730275 0.309896
vt 0.770446 0.269725
vt 0.827256 0.269725
vt 0.867427 0.309896
vt 0.867427 0.366706
vt 0.827256 0.406877
vt 0.066287 0.830278
vt 0.015821 0.221123
vt 0.523630 0.221123
vt 0.473164 0.830278
vt 0.730275 0.079001
vt 0.809275 0.000000
vt 0.920999 0.000000
vt 1.000000 0.079001
vt 1.000000 0.190725
vt 0.920999 0.269725
vt 0.809275 0.269725
vt 0.730275 0.190725
vt 0.539451 0.006157
vt 0.460450 0.000000
vt 0.079001 0.000000
vt 0.000000 0.006157
vt 0.190725 0.000000
vt 0.269725 0.006157
vt 0.618609 0.000000
vt 0.539451 0.003605
vt 0.730275 0.003605
vt 0.348726 0.000000
vt 0.269725 0.006157
vn 0.3814 0.0825 -0.9207
vn 0.9207 0.0825 -0.3814
vn 0.9207 0.0825 0.3814
vn 0.3814 0.0825 0.9207
vn -0.3814 0.0825 0.9207
vn -0.9207 0.0825 0.3814
vn 0.0000 1.0000 -0.0000
vn -0.9207 0.0825 -0.3814
vn -0.3814 0.0825 -0.9207
vn 0.0000 -1.0000 -0.0000
vn -0.3817 0.0734 -0.9214
vn -0.9214 0.0734 -0.3817
vn -0.9214 0.0734 0.3817
vn -0.3817 0.0734 0.9214
vn 0.3817 0.0734 0.9214
vn 0.9214 0.0734 0.3817
vn 0.9214 0.0734 -0.3817
vn 0.3817 0.0734 -0.9214
usemtl Trunk
s off
f 17/1/1 2/2/1 4/3/1 18/4/1
f 18/4/2 4/3/2 6/5/2 19/6/2
f 19/7/3 6/8/3 8/9/3 20/10/3
f 20/10/4 8/9/4 10/11/4 21/12/4
f 21/13/5 10/14/5 12/15/5 22/16/5
f 22/16/6 12/15/6 14/17/6 23/18/6
f 4/19/7 2/20/7 16/21/7 14/22/7 12/23/7 10/24/7 8/25/7 6/26/7
f 23/18/8 14/17/8 16/27/8 24/28/8
f 24/29/9 16/30/9 2/2/9 17/1/9
f 1/31/10 3/32/10 5/33/10 7/34/10 9/35/10 11/36/10 13/37/10 15/38/10
f 15/39/11 24/29/11 17/1/11 1/40/11
f 13/41/12 23/18/12 24/28/12 15/42/12
f 11/43/13 22/16/13 23/18/13 13/41/13
f 9/44/14 21/13/14 22/16/14 11/43/14
f 7/45/15 20/10/15 21/12/15 9/46/15
f 5/47/16 19/7/16 20/10/16 7/45/16
f 3/48/17 18/4/17 19/6/17 5/49/17
f 1/40/18 17/1/18 18/4/18 3/48/18
o Leafs3.3_Cylinder.002
v -0.056113 4.014593 -1.160261
v 0.525034 4.036374 -0.993025
v 0.944364 4.058550 -0.558197
v 1.089516 4.075178 0.027711
v 0.921598 4.081804 0.607706
v 0.485604 4.076650 1.026378
v -0.101643 4.061099 1.171545
v -0.682790 4.039318 1.004308
v -1.102119 4.017142 0.569481
v -1.247272 4.000513 -0.016427
v -1.079355 3.993889 -0.596421
v -0.643360 3.999041 -1.015094
v -0.021964 3.136628 -1.483006
v 0.724619 3.164610 -1.268163
v 1.263319 3.193100 -0.709552
v 1.449792 3.214462 0.043147
v 1.234073 3.222973 0.788249
v 0.673964 3.216353 1.326105
v -0.080455 3.196375 1.512596
v -0.827039 3.168393 1.297753
v -1.365739 3.139904 0.739143
v -1.552213 3.118542 -0.013556
v -1.336494 3.110031 -0.758659
v -0.776384 3.116651 -1.296515
v -0.855885 2.440673 -1.361443
v -1.431459 2.430745 -0.785305
v -1.641112 2.416090 0.000668
v -1.428666 2.400638 0.785876
v -0.851048 2.388527 1.359923
v -0.063029 2.383002 1.568993
v 0.724242 2.385546 1.357066
v 1.299816 2.395474 0.780928
v 1.509469 2.410128 -0.005045
v 1.297025 2.425582 -0.790253
v 0.719407 2.437692 -1.364300
v -0.068613 2.443216 -1.573370
v -0.737608 3.339492 -1.135815
v -1.228148 3.331030 -0.644794
v -1.406826 3.318541 0.025060
v -1.225768 3.305372 0.694263
v -0.733486 3.295049 1.183500
v -0.061888 3.290342 1.361683
v 0.609073 3.292508 1.181066
v 1.099613 3.300971 0.690046
v 1.278292 3.313460 0.020191
v 1.097234 3.326630 -0.649011
v 0.604952 3.336952 -1.138250
v -0.066647 3.341660 -1.316432
v -0.059660 2.413928 -1.376720
v 0.631614 2.423155 -1.187797
v 1.135506 2.439795 -0.679491
v 1.316997 2.459391 0.011998
v 1.127458 2.476691 0.701385
v 0.617676 2.487059 1.203951
v -0.075755 2.487719 1.385034
v -0.767029 2.478491 1.196111
v -1.270920 2.461850 0.687806
v -1.452412 2.442255 -0.003683
v -1.262874 2.424955 -0.693071
v -0.753092 2.414587 -1.195637
v -0.053078 1.539500 -1.583582
v 0.747762 1.549723 -1.364699
v 1.331526 1.567728 -0.775785
v 1.541794 1.588689 0.025363
v 1.322224 1.606991 0.824077
v 0.731651 1.617729 1.406342
v -0.071682 1.618026 1.616141
v -0.872523 1.607803 1.397259
v -1.456286 1.589798 0.808344
v -1.666554 1.568837 0.007197
v -1.446985 1.550535 -0.791517
v -0.856413 1.539797 -1.373782
v -0.060143 4.816375 -0.922652
v 0.415760 4.798477 -0.800647
v 0.766563 4.778834 -0.457526
v 0.898269 4.762707 0.014772
v 0.775586 4.754416 0.489695
v 0.431388 4.756186 0.839988
v -0.042097 4.767540 0.971791
v -0.518001 4.785437 0.849786
v -0.868804 4.805081 0.506665
v -1.000509 4.821209 0.034367
v -0.877827 4.829498 -0.440556
v -0.533629 4.827728 -0.790849
v -0.092774 3.935106 -1.453476
v 0.635406 3.907721 -1.266796
v 1.172169 3.877664 -0.741787
v 1.373692 3.852987 -0.019124
v 1.185975 3.840305 0.707556
v 0.659318 3.843012 1.243539
v -0.065162 3.860386 1.445211
v -0.793341 3.887770 1.258531
v -1.330104 3.917827 0.733522
v -1.531628 3.942502 0.010859
v -1.343911 3.955186 -0.715821
v -0.817255 3.952478 -1.251804
v -0.076801 5.463150 -0.836994
v 0.348115 5.476633 -0.723125
v 0.659031 5.487387 -0.412467
v 0.772637 5.492527 0.011741
v 0.658495 5.490676 0.435832
v 0.347187 5.482330 0.746172
v -0.077872 5.469727 0.859604
v -0.502787 5.456242 0.745736
v -0.813703 5.445489 0.435078
v -0.927310 5.440350 0.010870
v -0.813168 5.442201 -0.413221
v -0.501860 5.450545 -0.723561
v -0.051932 4.660455 -1.288850
v 0.598231 4.681088 -1.114620
v 1.073963 4.697543 -0.639282
v 1.247793 4.705406 0.009798
v 1.073143 4.702577 0.658700
v 0.596811 4.689807 1.133550
v -0.053571 4.670521 1.307113
v -0.703734 4.649889 1.132884
v -1.179466 4.633437 0.657545
v -1.353296 4.625570 0.008465
v -1.178647 4.628402 -0.640436
v -0.702314 4.641170 -1.115287
v -0.035515 6.888493 0.025503
v -0.067771 5.381587 -1.151262
v 0.510614 5.367090 -0.996974
v 0.934093 5.351748 -0.574812
v 1.089195 5.339668 0.002105
v 0.934359 5.334092 0.579192
v 0.511076 5.336510 1.001821
v -0.067238 5.346273 1.156747
v -0.645624 5.360771 1.002459
v -1.069103 5.376114 0.580298
v -1.224205 5.388191 0.003381
v -1.069370 5.393770 -0.573706
v -0.646086 5.391352 -0.996335
vt 0.743164 1.886987
vt 0.747824 2.188276
vt 0.676208 2.245099
vt 0.670222 1.858040
vt 0.760554 2.444258
vt 0.692562 2.573950
vt 0.747824 1.621115
vt 0.676208 1.516484
vt 1.243168 -1.063393
vt 1.237857 -0.762323
vt 1.164463 -0.733375
vt 1.171286 -1.120151
vt 0.555457 0.609240
vt 0.559077 0.647518
vt 0.559077 0.693374
vt 0.555457 0.734522
vt 0.549188 0.759934
vt 0.541948 0.762803
vt 0.535679 0.742358
vt 0.532059 0.704080
vt 0.532059 0.658224
vt 0.535679 0.617076
vt 0.541948 0.591664
vt 0.549188 0.588796
vt 1.252486 1.422189
vt 1.237865 1.573984
vt 1.166379 1.480366
vt 1.185161 1.285359
vt 1.232514 1.835122
vt 1.159504 1.815841
vt 1.243168 -0.500147
vt 1.257678 -0.347115
vt 1.189927 -0.199970
vt 1.171286 -0.396565
vt -0.022064 0.112874
vt 0.018987 0.249456
vt 0.042687 0.501862
vt 0.042687 0.802462
vt 0.018987 1.070708
vt -0.022064 1.234725
vt -0.069466 1.250566
vt -0.110516 1.113986
vt -0.134217 0.861579
vt -0.134217 0.560980
vt -0.110516 0.292733
vt -0.069466 0.128715
vt 1.257678 -1.322685
vt 1.189927 -1.453256
vt 0.760554 1.461905
vt 0.692562 1.311952
vt 1.237865 2.135631
vt 1.252486 2.394992
vt 1.185161 2.535092
vt 1.166379 2.201899
vt 1.042352 1.199267
vt 1.061785 1.374708
vt 0.995814 1.485292
vt 0.973014 1.279439
vt 0.335678 2.068747
vt 0.346050 2.375112
vt 0.275844 2.465010
vt 0.263674 2.105538
vt 1.231808 0.714242
vt 1.237498 1.017198
vt 1.166181 1.075623
vt 1.159505 0.720149
vt 0.528257 0.609747
vt 0.532059 0.649585
vt 0.532059 0.697632
vt 0.528257 0.741016
vt 0.521672 0.768112
vt 0.514069 0.771659
vt 0.507483 0.750707
vt 0.503682 0.710871
vt 0.503682 0.662823
vt 0.507483 0.619439
vt 0.514069 0.592343
vt 0.521672 0.588796
vt 1.061785 0.080311
vt 1.042353 0.251703
vt 0.973014 0.167617
vt 0.995814 -0.033486
vt 1.031134 0.550899
vt 1.031134 0.897732
vt 0.959849 0.925635
vt 0.959849 0.518679
vt 0.346050 1.430360
vt 0.335678 1.722945
vt 0.263674 1.699790
vt 0.275844 1.356486
vt 1.253042 0.071946
vt 1.237498 0.368255
vt 1.166181 0.314187
vt 1.184420 -0.033487
vt 1.253042 1.195947
vt 1.184420 1.285359
vt 0.707808 -0.033487
vt 0.756413 0.130604
vt 0.784475 0.430981
vt 0.784475 0.787160
vt 0.756413 1.103700
vt 0.707808 1.295788
vt 0.651684 1.311951
vt 0.603079 1.147860
vt 0.575017 0.847483
vt 0.575017 0.491305
vt 0.603079 0.174764
vt 0.651684 -0.017324
vt 0.880321 -1.356174
vt 0.862709 -1.050729
vt 0.794636 -1.099391
vt 0.815007 -1.453256
vt 1.130981 1.895802
vt 1.130981 2.252611
vt 1.061908 2.279227
vt 1.061784 1.865850
vt 1.140404 -0.694063
vt 1.146851 -0.381746
vt 1.078656 -0.324409
vt 1.071277 -0.686204
vt 0.856262 -0.694063
vt 0.787135 -0.686204
vt 1.159504 0.073592
vt 1.141529 0.252333
vt 1.073934 0.173589
vt 1.094886 -0.033486
vt 1.131150 0.919810
vt 1.141529 1.229694
vt 1.073841 1.305858
vt 1.061784 0.946859
vt 1.131150 0.562071
vt 1.061818 0.532420
vt 1.142218 1.591428
vt 1.074677 1.513219
vt 0.723537 0.473610
vt 0.740881 0.957672
vt 0.637165 1.075491
vt 0.616933 0.514690
vt 1.164463 -0.197462
vt 1.098937 -0.110948
vt 1.159504 1.408688
vt 1.094759 1.513220
vt 0.499812 0.610322
vt 0.503682 0.651013
vt 0.503682 0.699965
vt 0.499812 0.744062
vt 0.493111 0.771488
vt 0.485372 0.774894
vt 0.478671 0.753367
vt 0.474801 0.712676
vt 0.474801 0.663724
vt 0.478671 0.619627
vt 0.485372 0.592202
vt 0.493111 0.588796
vt 0.421944 1.314751
vt 0.374839 1.154330
vt 0.347643 0.862241
vt 0.347643 0.516749
vt 0.374839 0.210427
vt 0.421944 0.025355
vt 0.476336 0.011121
vt 0.523441 0.171542
vt 0.550637 0.463631
vt 0.550637 0.809123
vt 0.523441 1.115445
vt 0.476336 1.300518
vt 1.048948 -0.887517
vt 1.048948 -0.642203
vt 0.969681 -0.574551
vt 0.969681 -0.949907
vt 1.057121 -0.427505
vt 0.982186 -0.246043
vt 1.057121 -1.097719
vt 0.982186 -1.271535
vt 0.659197 1.731637
vt 0.655161 1.976329
vt 0.575016 2.006504
vt 0.581192 1.632102
vt 0.562587 0.738381
vt 0.559077 0.701782
vt 0.559077 0.657509
vt 0.562587 0.617428
vt 0.568666 0.592277
vt 0.575686 0.588796
vt 0.581766 0.607917
vt 0.585276 0.644516
vt 0.585276 0.688788
vt 0.581766 0.728870
vt 0.575686 0.754020
vt 0.568666 0.757502
vt 1.071277 -0.300954
vt 1.003846 -0.052408
vt 1.338227 1.460868
vt 1.331417 1.666869
vt 1.252486 1.600563
vt 1.262906 1.285361
vt 0.659197 2.190913
vt 0.670222 2.317892
vt 0.598061 2.529129
vt 0.581191 2.334839
vt 0.836983 2.017919
vt 0.803694 1.903346
vt 0.784475 1.696022
vt 0.784475 1.451498
vt 0.803694 1.235295
vt 0.836983 1.105344
vt 0.875421 1.096467
vt 0.908710 1.211041
vt 0.927929 1.418365
vt 0.927929 1.662889
vt 0.908710 1.879092
vt 0.875421 2.009042
vt 0.670222 1.522402
vt 0.598061 1.311952
vt 1.071277 -1.216482
vt 1.003846 -1.453256
vt 1.331417 1.911454
vt 1.338227 2.129085
vt 1.262906 2.307801
vt 1.252486 1.974802
vt 0.418385 1.839500
vt 0.418385 2.059133
vt 0.347643 2.109699
vt 0.347643 1.773640
vt 0.425009 2.249382
vt 0.357778 2.400801
vt 0.425009 1.649334
vt 0.357778 1.482668
vt 1.035659 1.845369
vt 1.031945 2.064419
vt 0.959849 2.106627
vt 0.965533 1.771459
vt 0.523975 0.788996
vt 0.527114 0.821919
vt 0.527114 0.861605
vt 0.523975 0.897423
vt 0.518537 0.919773
vt 0.512259 0.922668
vt 0.506821 0.905331
vt 0.503682 0.872408
vt 0.503682 0.832721
vt 0.506821 0.796904
vt 0.512259 0.774554
vt 0.518537 0.771659
vt 0.436482 2.359272
vt 0.375333 2.568942
vt 1.331369 0.124460
vt 1.324201 0.310343
vt 1.253042 0.250933
vt 1.264009 -0.033487
vt 1.035659 2.256799
vt 1.045808 2.370960
vt 0.981060 2.575666
vt 0.965533 2.400987
vt 0.517989 1.314750
vt 0.547822 1.416080
vt 0.565047 1.600932
vt 0.565047 1.819777
vt 0.547822 2.013973
vt 0.517989 2.131488
vt 0.483540 2.140833
vt 0.453707 2.039503
vt 0.436482 1.854651
vt 0.436482 1.635807
vt 0.453707 1.441610
vt 0.483540 1.324095
vt 1.045808 1.658343
vt 0.981061 1.485292
vt 0.436482 1.539591
vt 0.375333 1.314750
vt 1.324201 0.529428
vt 1.331369 0.723012
vt 1.264009 0.882358
vt 1.253042 0.586156
vt 0.685539 -1.376996
vt 0.601469 -0.852837
vt 0.554796 -1.076004
vt 0.649324 -0.686068
vt 0.521811 -1.295773
vt -0.342467 1.250566
vt -0.426061 1.769865
vt -0.473662 1.550306
vt 0.602014 0.772904
vt 0.604805 0.802168
vt 0.604805 0.837453
vt 0.602014 0.869303
vt 0.597178 0.889184
vt 0.591594 0.891771
vt 0.586758 0.876368
vt 0.583966 0.847104
vt 0.583966 0.811820
vt 0.586758 0.779970
vt 0.591594 0.760088
vt 0.597178 0.757502
vt 0.685539 -0.620382
vt -0.110196 2.062861
vt -0.163250 1.475098
vt -0.110196 1.356486
vt -0.342467 1.994924
vt -0.378041 1.932605
vt -0.508088 1.332762
vt 0.511353 -1.453256
vt -0.265040 1.834159
vt -0.219926 1.649939
vn 0.2145 0.3629 0.9068
vn -0.2713 0.3474 0.8976
vn 0.6401 0.3740 0.6712
vn 0.2479 0.3427 -0.9061
vn 0.0315 -0.9993 0.0205
vn -0.6875 0.3316 0.6461
vn -0.9219 0.3194 0.2193
vn 0.8985 0.3719 -0.2332
vn -0.0315 0.9993 -0.0205
vn -0.2349 0.3273 -0.9152
vn 0.6626 0.3591 -0.6573
vn 0.8907 0.3774 0.2536
vn -0.6589 0.3169 -0.6822
vn -0.6847 0.2238 0.6936
vn -0.6852 0.2609 -0.6800
vn 0.6837 0.2586 -0.6825
vn -0.0019 -0.9998 -0.0192
vn 0.9385 0.2331 0.2547
vn 0.2532 0.2152 0.9432
vn -0.9368 0.2362 0.2581
vn -0.2513 0.2666 -0.9304
vn 0.9367 0.2467 -0.2486
vn -0.2490 0.2160 0.9441
vn 0.2490 0.2658 -0.9313
vn -0.9367 0.2498 -0.2452
vn -0.0060 0.9996 -0.0267
vn -0.2463 0.2213 -0.9436
vn -0.9377 0.2268 -0.2632
vn 0.6874 0.2307 -0.6887
vn 0.2542 0.2244 -0.9408
vn 0.9362 0.2454 0.2515
vn -0.2585 0.2470 0.9339
vn 0.2448 0.2501 0.9368
vn -0.9420 0.2337 0.2409
vn -0.6823 0.2222 -0.6964
vn 0.9377 0.2384 -0.2526
vn 0.6823 0.2496 0.6872
vn -0.6930 0.2411 0.6794
vn 0.0060 -0.9997 0.0246
vn -0.9110 0.3141 -0.2673
vn 0.6880 0.2215 0.6911
vn 0.0019 0.9998 0.0192
vn 0.2503 0.4429 0.8609
vn -0.2047 0.4569 0.8656
vn 0.6423 0.4382 0.6289
vn 0.2332 0.4954 -0.8368
vn -0.0310 -0.9992 -0.0255
vn -0.6010 0.4765 0.6417
vn -0.8318 0.4961 0.2489
vn 0.8602 0.4579 -0.2243
vn 0.0310 0.9992 0.0255
vn -0.2194 0.5093 -0.8321
vn 0.6282 0.4767 -0.6149
vn 0.8657 0.4438 0.2314
vn -0.6102 0.5149 -0.6022
vn -0.8349 0.5101 -0.2068
vn 0.2125 0.4823 0.8498
vn -0.2425 0.4684 0.8496
vn 0.6067 0.4951 0.6219
vn 0.2121 0.4844 -0.8488
vn 0.0307 -0.9995 0.0039
vn -0.6366 0.4569 0.6213
vn -0.8636 0.4508 0.2258
vn 0.8331 0.5035 -0.2292
vn -0.0307 0.9995 -0.0039
vn -0.2405 0.4705 -0.8490
vn 0.6049 0.4965 -0.6226
vn 0.8341 0.5029 0.2267
vn -0.6335 0.4585 -0.6232
vn -0.8621 0.4514 -0.2301
vn 0.2209 0.5739 0.7886
vn -0.1958 0.5826 0.7888
vn 0.5822 0.5699 0.5799
vn 0.2206 0.5974 -0.7710
vn -0.0210 -0.9997 -0.0153
vn -0.5572 0.5938 0.5805
vn -0.7664 0.6040 0.2187
vn 0.7913 0.5776 -0.2006
vn -0.1963 0.6061 -0.7708
vn 0.5821 0.5871 -0.5626
vn 0.7913 0.5713 0.2178
vn -0.5576 0.6110 -0.5620
vn -0.7666 0.6103 -0.1998
usemtl Leaves
s off
f 30/50/19 31/51/19 43/52/19 42/53/19
f 31/51/20 32/54/20 44/55/20 43/52/20
f 29/56/21 30/50/21 42/53/21 41/57/21
f 25/58/22 26/59/22 38/60/22 37/61/22
f 37/62/23 38/63/23 39/64/23 40/65/23 41/66/23 42/67/23 43/68/23 44/69/23 45/70/23 46/71/23 47/72/23 48/73/23
f 32/74/24 33/75/24 45/76/24 44/77/24
f 33/75/25 34/78/25 46/79/25 45/76/25
f 27/80/26 28/81/26 40/82/26 39/83/26
f 25/84/27 36/85/27 35/86/27 34/87/27 33/88/27 32/89/27 31/90/27 30/91/27 29/92/27 28/93/27 27/94/27 26/95/27
f 36/96/28 25/58/28 37/61/28 48/97/28
f 26/59/29 27/80/29 39/83/29 38/60/29
f 28/98/30 29/56/30 41/57/30 40/99/30
f 35/100/31 36/101/31 48/102/31 47/103/31
f 65/104/32 64/105/32 52/106/32 53/107/32
f 62/108/33 61/109/33 49/110/33 50/111/33
f 71/112/34 70/113/34 58/114/34 59/115/34
f 60/116/35 59/117/35 58/118/35 57/119/35 56/120/35 55/121/35 54/122/35 53/123/35 52/124/35 51/125/35 50/126/35 49/127/35
f 69/128/36 68/129/36 56/130/36 57/131/36
f 67/132/37 66/133/37 54/134/37 55/135/37
f 64/136/38 63/137/38 51/138/38 52/139/38
f 61/140/39 72/141/39 60/142/39 49/143/39
f 70/113/40 69/144/40 57/145/40 58/114/40
f 66/133/41 65/104/41 53/107/41 54/134/41
f 72/141/42 71/112/42 59/115/42 60/142/42
f 63/137/43 62/108/43 50/111/43 51/138/43
f 73/146/44 84/147/44 83/148/44 82/149/44 81/150/44 80/151/44 79/152/44 78/153/44 77/154/44 76/155/44 75/156/44 74/157/44
f 84/158/45 73/159/45 85/160/45 96/161/45
f 82/162/46 83/163/46 95/164/46 94/165/46
f 74/166/47 75/167/47 87/168/47 86/169/47
f 73/159/48 74/170/48 86/171/48 85/160/48
f 76/172/49 77/173/49 89/174/49 88/175/49
f 79/176/50 80/177/50 92/178/50 91/179/50
f 78/180/51 79/176/51 91/179/51 90/181/51
f 81/182/52 82/162/52 94/165/52 93/183/52
f 83/184/53 84/185/53 96/186/53 95/187/53
f 75/167/54 76/188/54 88/189/54 87/168/54
f 77/173/55 78/180/55 90/181/55 89/174/55
f 80/177/56 81/190/56 93/191/56 92/178/56
f 85/192/57 86/193/57 87/194/57 88/195/57 89/196/57 90/197/57 91/198/57 92/199/57 93/200/57 94/201/57 95/202/57 96/203/57
f 34/78/58 35/100/58 47/103/58 46/79/58
f 68/129/59 67/132/59 55/135/59 56/130/59
f 72/204/60 61/205/60 62/206/60 63/207/60 64/208/60 65/209/60 66/210/60 67/211/60 68/212/60 69/213/60 70/214/60 71/215/60
f 102/216/61 103/217/61 115/218/61 114/219/61
f 103/217/62 104/220/62 116/221/62 115/218/62
f 101/222/63 102/216/63 114/219/63 113/223/63
f 97/224/64 98/225/64 110/226/64 109/227/64
f 109/228/65 110/229/65 111/230/65 112/231/65 113/232/65 114/233/65 115/234/65 116/235/65 117/236/65 118/237/65 119/238/65 120/239/65
f 104/220/66 105/240/66 117/241/66 116/221/66
f 105/242/67 106/243/67 118/244/67 117/245/67
f 99/246/68 100/247/68 112/248/68 111/249/68
f 97/250/69 108/251/69 107/252/69 106/253/69 105/254/69 104/255/69 103/256/69 102/257/69 101/258/69 100/259/69 99/260/69 98/261/69
f 108/262/70 97/224/70 109/227/70 120/263/70
f 98/225/71 99/246/71 111/249/71 110/226/71
f 100/264/72 101/222/72 113/223/72 112/265/72
f 107/266/73 108/267/73 120/268/73 119/269/73
f 106/243/74 107/266/74 119/269/74 118/244/74
f 126/270/75 127/271/75 139/272/75 138/273/75
f 127/271/76 128/274/76 140/275/76 139/272/76
f 125/276/77 126/270/77 138/273/77 137/277/77
f 121/278/78 122/279/78 134/280/78 133/281/78
f 133/282/79 134/283/79 135/284/79 136/285/79 137/286/79 138/287/79 139/288/79 140/289/79 141/290/79 142/291/79 143/292/79 144/293/79
f 128/274/80 129/294/80 141/295/80 140/275/80
f 129/296/81 130/297/81 142/298/81 141/299/81
f 123/300/82 124/301/82 136/302/82 135/303/82
f 121/304/83 132/305/83 131/306/83 130/307/83 129/308/83 128/309/83 127/310/83 126/311/83 125/312/83 124/313/83 123/314/83 122/315/83
f 132/316/84 121/278/84 133/281/84 144/317/84
f 122/279/85 123/300/85 135/303/85 134/280/85
f 124/318/86 125/276/86 137/277/86 136/319/86
f 131/320/87 132/321/87 144/322/87 143/323/87
f 130/297/88 131/320/88 143/323/88 142/298/88
f 145/324/89 152/325/89 151/326/89
f 145/324/90 153/327/90 152/325/90
f 145/324/91 151/326/91 150/328/91
f 145/329/92 147/330/92 146/331/92
f 146/332/93 147/333/93 148/334/93 149/335/93 150/336/93 151/337/93 152/338/93 153/339/93 154/340/93 155/341/93 156/342/93 157/343/93
f 145/324/94 154/344/94 153/327/94
f 145/345/95 155/346/95 154/347/95
f 145/329/96 149/348/96 148/349/96
f 145/329/97 146/331/97 157/350/97
f 145/329/98 148/349/98 147/330/98
f 145/324/99 150/328/99 149/351/99
f 145/345/100 157/352/100 156/353/100
f 145/345/101 156/353/101 155/346/101
