<?xml version="1.0" encoding="UTF-8" standalone="no"?>
<!-- Created with Inkscape (http://www.inkscape.org/) -->
<svg xmlns:rdf="http://www.w3.org/1999/02/22-rdf-syntax-ns#" xmlns="http://www.w3.org/2000/svg" height="367.188" width="346.406" version="1.1" xmlns:cc="http://creativecommons.org/ns#" xmlns:dc="http://purl.org/dc/elements/1.1/">

 <metadata>

  <rdf:RDF>

   <cc:Work rdf:about="">

    <dc:format>image/svg+xml</dc:format>

    <dc:type rdf:resource="http://purl.org/dc/dcmitype/StillImage"/>

    <dc:title/>

   </cc:Work>

  </rdf:RDF>

 </metadata>

 <g transform="translate(-176.8125,-348.76843)">

  <path fill-rule="nonzero" fill="#000" d="m470.974,676.737,1.25625,2.78612,1.17375-2.78612,1.14375,0,0,3.89262-0.71,0,0-3.2125-1.3825,3.2125-0.46625,0-1.44875-3.2125,0,3.2125-0.70875,0,0-3.89262,1.1425,0zm-1.9325,0,0,0.57862-1.42125,0,0,3.314-0.78125,0,0-3.314-1.4225,0,0-0.57862,3.625,0m-86.6612,17.3438-18.115,0,0,6.40625,18.115,0,0-6.40625zm-0.705-11.875-17.41,0,0,6.40625,17.41,0,0-6.40625zm6.33,12.6836,0,7.52246c0,1.95655-1.58625,3.54395-3.54375,3.54395h-25.8212v-29.2188h25.1138c1.95625,0,3.54375,1.58737,3.54375,3.544v7.52237c0,1.95613-1.5875,3.5435-3.54375,3.5435h0.7075c1.9575,0,3.54375,1.58638,3.54375,3.54247m-137.782-12.6836-16.6982,0,0,7.11375,16.6982,0,0-7.11375zm-2.65087,12.5825-14.0488,0,0.001,11.1675-5.625,0,0-29.2188,24.4049,0c1.9565,0,3.54337,1.58737,3.54337,3.544v10.9634c0,1.6665-1.15625,3.05659-2.706,3.43502l3.7675,11.2764h-5.6225l-3.71487-11.1675m76.652-14.507c0-1.95663-1.58625-3.544-3.5425-3.544h-22.6318c-1.9565,0-3.54287,1.58737-3.54287,3.544v10.2558c0,1.95663,1.58637,3.544,3.54287,3.544h20.553v6.40625h-18.47v-3.24024h-5.625l-0.00087,5.16504c0,1.95655,1.58637,3.54395,3.54287,3.54395h22.6318c1.95625,0,3.5425-1.5874,3.5425-3.54395l0.004-10.2558c0-1.95663-1.58625-3.544-3.54375-3.544h-20.5512l-0.00087-6.40625h18.4671v3.75h5.625v-5.67475m176.828,8.331c1.95625,0,3.54375,1.58737,3.54375,3.544v10.2558c0,1.95655-1.5875,3.54395-3.54375,3.54395h-22.6475c-1.95625,0-3.5425-1.5874-3.5425-3.54395l0.009-5.48241h5.62625v3.55761h18.4725v-6.40625h-15.9088v-5.46875l10.395-6.40625h-15.8638v-5.46875h25.9288v4.40625l-12.1788,7.46875h9.71m-107.686,17.3438,5.62597,0,0-29.2188-5.62597,0,0,29.2188zm37.785-29.2188-28.1162,0,0,5.46875,11.245,0,0,23.75,5.62625,0,0-23.75,11.245,0,0-5.46875m-76.5425,0-28.11,0,0,5.46875,11.2425,0,0,23.75,5.625,0,0-23.75,11.2425,0,0-5.46875m-70.0168,5.46875-18.1152,0,0,18.2812,18.1152,0,0-18.2812zm5.625,20.206c0,1.95655-1.58688,3.54395-3.54388,3.54395h-22.2784c-1.9565,0-3.543-1.5874-3.543-3.54395v-22.1308c0-1.95663,1.5865-3.544,3.543-3.544h22.2784c1.957,0,3.54388,1.58737,3.54388,3.544v22.1308m-65.9058-25.6748-27.6562,0,0,29.2188,5.46875,0,0-11.875,16.5625,0,0-5.46875-16.5625,0,0-6.40625,22.1875,0,0-5.46875m239.532,5.46875,0-5.46875-28.7238,0,0,29.2188,28.7238,0,0-5.46875-23.2538,0,0-6.40625,18.3362,0,0-5.46875-18.3362,0,0-6.40625,23.2538,0m-120.158-232.5,5.78125,11.5625,0.625,8.75,3.125,8.90625,2.5-33.2812-11.25-29.8438-0.78125,33.9062m21.7188,1.5625,6.71875,26.4062,2.96875,2.5,0.625,4.53125,2.96875-17.3438-13.2812-16.0938m49.5312,27.9688-0.625,21.5625,17.9688-21.875-15.1562-0.78125-2.1875,1.09375m-61.875,36.5625,17.3438,0.3125,6.5625-8.28125-0.3125-9.21875,4.21875-3.59375-9.0625-8.75-10.3125-39.375-2.96875,4.84375-5.46875,64.0625m-10.27,32.8538-10.6675-34.4162,15-33.4375,0.78125-6.25,3.90625,10-4.48875,19.375-4.53125,44.7288m1.98875,14.1775,21.7188-42.0312-18.4375-4.21875-3.28125,46.25m3.90625-2.65625,11.4062-3.125,6.71875,5.46875,7.8125-8.28125,1.40625-17.6562-2.96875-14.8438-3.59375,0.625-20.7812,37.8125m28.9062-46.875,1.25,24.6875,4.53125-15.1562,2.03125-2.8125-7.8125-6.71875m4.6875,23.4375,27.6562-21.7188-0.15625-16.5625,4.6875-35.1562-14.6875,27.0312-9.84375,9.53125-0.9375,3.59375-4.6875,10.7812,5,3.4375-7.03125,19.0625m-2.96875,11.4062,13.75-5.625,0.3125-4.6875,11.5625-9.21875-0.625-6.5625-19.375,16.4062-5.625,9.6875m24.5312,12.0312,10.625-5.3125-3.4375-6.40625,9.0625-19.0625-17.9688,4.84375-5.78125,5.15625-0.9375,10.3125,8.4375,10.4688m77.0312-37.6562,16.25,9.6875,12.9688-16.0938,3.125-9.375-8.90625-1.09375-23.4375,16.875m-49.2188,40.9375,14.0625-16.7188,7.8125,1.09375,24.2188-21.7188-7.34375,25-12.8125,7.65625-25.9375,4.6875m-26.25,4.6875,21.0938,0.15625,15.9375-25.3125,0.3125-5.15625-25.7812,10.1562,0.625,5.9375-9.375,9.84375-2.8125,4.375m-46.25,1.71875,45.9375-5.78125-10.3125-9.53125-1.5625-5.78125-7.65625-0.78125-9.53125,8.28125-5,5.9375-11.875,7.65625m2.1875,6.25,34.0625,7.5,2.03125-2.8125,0.15625-2.03125,3.125-5.46875,2.8125-1.875-1.875-5-34.0625,3.90625-6.25,5.78125m44.8438,3.125,2.1875,5.625,28.4375-12.9688-24.0625-0.15625-6.5625,7.5m-46.7188,6.71875,37.3438,0-37.0312-8.75-7.65625-3.90625,7.34375,12.6562m30.4688,5.46875,30.4688,13.2812,5.15625-6.875-0.46875-7.96875-15.3125-3.59375-18.125,2.34375-1.71875,2.8125m-40.1562-5.3125,4.0625,6.09375,27.6562,9.375,5.15625,7.5,34.5312,8.125,11.0938-4.53125-49.375-23.125-33.125-3.4375m43.5938,27.8125,7.1875,19.8438,2.03125-5.625,15-10.1562-24.2188-4.0625m-24.376,20.784l-13.125,0.3125,4.21875,28.4375,26.7188-15.9375,29.2188-4.0625-45.9375-15.3125-1.09375,6.5625m-18.5938-1.875-2.65625-40.9375,29.2188,15.3125,10.625,11.5625,5.3125,0,2.96875,7.1875,0.15625,6.875-29.5312-8.28125-16.0938,8.28125m-5.46875-46.875-8.59375,29.2188,7.34375,32.6562,8.28125,14.6875-7.03125-76.5625m-10.3125,2.1875,2.03125,12.0312,6.09375-18.4375-3.125,0.625-5,5.78125m-18.2812,7.34375,6.875,8.4375,1.5625,4.21875,5.15625,3.28125,3.4375,5.78125-0.625-32.9688-3.125-7.65625-13.2812,18.9062m-15.7812,51.4062,38.9062,11.875-4.53125-31.7188-3.125-2.03125-4.84375-12.9688-4.84375-0.78125-3.4375,2.96875-18.125,32.6562m-37.3438-33.9062,11.4062-2.8125,33.2812-17.9688,9.53125,8.59375-2.34375,2.96875,3.125,3.125-13.4375,24.8438-9.53125-4.53125,0.9375-4.0625-4.375,3.90625-28.5938-14.0625m-10.7812-21.875-28.9062-26.7188-36.7188-7.34375,23.4375,30.625,20,2.65625,1.25-2.8125,3.59375,3.4375,17.3438,0.15625m-12.3438-14.8438,12.1875,10.3125-2.8125-10.3125-9.375,0m10.7812-1.71875,46.0938,10.1562-4.375,2.03125-10,12.6562-15-6.875-2.8125-5.3125-10.1562-5.15625-3.75-7.5m41.0938-24.5312,16.0938,6.71875,23.5938,14.2188-20.3125,12.0312-20.3125-1.5625,3.90625-26.4062-2.96875-5m-3.75-3.90625,34.0625,15.1562-2.8125-7.8125,11.7188,4.84375-10.9375-14.0625-5.46875-4.21875-0.9375-2.96875-23.75-28.75,2.1875,16.4062,3.75,6.875-7.34375-6.09375-0.46875,20.625m26.5625-33.75,5,27.3438,13.4375,17.3438,4.53125,2.65625-3.4375-15.9375-3.90625-2.96875-4.14-17.3438-11.485-11.0938m-43.75-50.1562,12.9688,28.9062-2.65625,4.375,12.5,9.21875,19.5312,19.375-2.96875-12.6562-15.4688-35-23.9062-14.2188m-10.3125-74.0625,2.34375,40.9375,15.3125,24.0625,7.34375,1.71875,3.59375,5.78125-0.78125-30.1562-18.9062-28.75-0.3125-4.84375-8.59375-8.75m83.5938-5.78125,16.875-23.5938,3.75,46.5625-7.34375,23.75-10.9375-21.0938-2.34375-25.625m80.4688,58.5938,20.4688-26.875,6.40625,7.34375-1.25,15.3125-18.4375,28.2812-7.1875-24.0625"/>

 </g>

</svg>