# Blender v2.78 (sub 0) OBJ File: ''
# www.blender.org
mtllib shadow_scene.mtl
o Icosphere
v -4.864839 3.662990 0.824162
v -4.141232 4.215771 1.349887
v -5.141227 4.215770 1.674811
v -5.759265 4.215775 0.824162
v -5.141227 4.215770 -0.026488
v -4.141232 4.215771 0.298436
v -4.588450 5.110210 1.674811
v -5.588446 5.110209 1.349887
v -5.588446 5.110209 0.298436
v -4.588450 5.110210 -0.026488
v -3.970412 5.110206 0.824162
v -4.864839 5.662990 0.824162
v -5.027294 3.812336 1.324157
v -4.439516 3.812336 1.133173
v -4.601970 4.137252 1.633173
v -4.014191 4.137254 0.824162
v -4.439516 3.812336 0.515150
v -5.390568 3.812338 0.824162
v -5.553028 4.137254 1.324159
v -5.027294 3.812336 0.324166
v -5.553028 4.137254 0.324165
v -4.601970 4.137252 0.015150
v -3.913781 4.662990 1.133174
v -3.913781 4.662990 0.515149
v -4.864839 4.662990 1.824162
v -4.277053 4.662990 1.633178
v -5.815897 4.662990 1.133174
v -5.452624 4.662990 1.633178
v -5.452624 4.662990 0.015145
v -5.815897 4.662990 0.515149
v -4.277053 4.662990 0.015145
v -4.864839 4.662990 -0.175838
v -4.176649 5.188726 1.324159
v -5.127707 5.188728 1.633173
v -5.715487 5.188726 0.824162
v -5.127707 5.188728 0.015150
v -4.176649 5.188726 0.324165
v -4.702383 5.513644 1.324157
v -4.339109 5.513642 0.824162
v -5.290161 5.513644 1.133173
v -5.290161 5.513644 0.515150
v -4.702383 5.513644 0.324166
vn 0.1024 -0.9435 0.3151
vn 0.7002 -0.6617 0.2680
vn -0.2680 -0.9435 0.1947
vn -0.2680 -0.9435 -0.1947
vn 0.1024 -0.9435 -0.3151
vn 0.9050 -0.3304 0.2680
vn 0.0247 -0.3304 0.9435
vn -0.8897 -0.3304 0.3151
vn -0.5746 -0.3304 -0.7488
vn 0.5346 -0.3304 -0.7779
vn 0.8026 -0.1256 0.5831
vn -0.3066 -0.1256 0.9435
vn -0.9921 -0.1256 0.0000
vn -0.3066 -0.1256 -0.9435
vn 0.8026 -0.1256 -0.5831
vn 0.4089 0.6617 0.6284
vn -0.4713 0.6617 0.5831
vn -0.7002 0.6617 -0.2680
vn 0.0385 0.6617 -0.7488
vn 0.7240 0.6617 -0.1947
vn 0.2680 0.9435 -0.1947
vn 0.4911 0.7947 -0.3568
vn 0.4089 0.6617 -0.6284
vn -0.1024 0.9435 -0.3151
vn -0.1876 0.7947 -0.5773
vn -0.4713 0.6617 -0.5831
vn -0.3313 0.9435 0.0000
vn -0.6071 0.7947 0.0000
vn -0.7002 0.6617 0.2680
vn -0.1024 0.9435 0.3151
vn -0.1876 0.7947 0.5773
vn 0.0385 0.6617 0.7488
vn 0.2680 0.9435 0.1947
vn 0.4911 0.7947 0.3568
vn 0.7240 0.6617 0.1947
vn 0.8897 0.3304 -0.3151
vn 0.7947 0.1876 -0.5773
vn 0.5746 0.3304 -0.7488
vn -0.0247 0.3304 -0.9435
vn -0.3035 0.1876 -0.9342
vn -0.5346 0.3304 -0.7779
vn -0.9050 0.3304 -0.2680
vn -0.9822 0.1876 0.0000
vn -0.9050 0.3304 0.2680
vn -0.5346 0.3304 0.7779
vn -0.3035 0.1876 0.9342
vn -0.0247 0.3304 0.9435
vn 0.5746 0.3304 0.7488
vn 0.7947 0.1876 0.5773
vn 0.8897 0.3304 0.3151
vn 0.3066 0.1256 -0.9435
vn 0.3035 -0.1876 -0.9342
vn 0.0247 -0.3304 -0.9435
vn -0.8026 0.1256 -0.5831
vn -0.7947 -0.1876 -0.5773
vn -0.8897 -0.3304 -0.3151
vn -0.8026 0.1256 0.5831
vn -0.7947 -0.1876 0.5773
vn -0.5746 -0.3304 0.7488
vn 0.3066 0.1256 0.9435
vn 0.3035 -0.1876 0.9342
vn 0.5346 -0.3304 0.7779
vn 0.9921 0.1256 0.0000
vn 0.9822 -0.1876 0.0000
vn 0.9050 -0.3304 -0.2680
vn 0.4713 -0.6617 -0.5831
vn 0.1876 -0.7947 -0.5773
vn -0.0385 -0.6617 -0.7488
vn -0.4089 -0.6617 -0.6284
vn -0.4911 -0.7947 -0.3568
vn -0.7240 -0.6617 -0.1947
vn -0.7240 -0.6617 0.1947
vn -0.4911 -0.7947 0.3568
vn -0.4089 -0.6617 0.6284
vn 0.7002 -0.6617 -0.2680
vn 0.6071 -0.7947 0.0000
vn 0.3313 -0.9435 0.0000
vn -0.0385 -0.6617 0.7488
vn 0.1876 -0.7947 0.5773
vn 0.4713 -0.6617 0.5831
usemtl None
s off
f 1//1 14//1 13//1
f 2//2 14//2 16//2
f 1//3 13//3 18//3
f 1//4 18//4 20//4
f 1//5 20//5 17//5
f 2//6 16//6 23//6
f 3//7 15//7 25//7
f 4//8 19//8 27//8
f 5//9 21//9 29//9
f 6//10 22//10 31//10
f 2//11 23//11 26//11
f 3//12 25//12 28//12
f 4//13 27//13 30//13
f 5//14 29//14 32//14
f 6//15 31//15 24//15
f 7//16 33//16 38//16
f 8//17 34//17 40//17
f 9//18 35//18 41//18
f 10//19 36//19 42//19
f 11//20 37//20 39//20
f 39//21 42//21 12//21
f 39//22 37//22 42//22
f 37//23 10//23 42//23
f 42//24 41//24 12//24
f 42//25 36//25 41//25
f 36//26 9//26 41//26
f 41//27 40//27 12//27
f 41//28 35//28 40//28
f 35//29 8//29 40//29
f 40//30 38//30 12//30
f 40//31 34//31 38//31
f 34//32 7//32 38//32
f 38//33 39//33 12//33
f 38//34 33//34 39//34
f 33//35 11//35 39//35
f 24//36 37//36 11//36
f 24//37 31//37 37//37
f 31//38 10//38 37//38
f 32//39 36//39 10//39
f 32//40 29//40 36//40
f 29//41 9//41 36//41
f 30//42 35//42 9//42
f 30//43 27//43 35//43
f 27//44 8//44 35//44
f 28//45 34//45 8//45
f 28//46 25//46 34//46
f 25//47 7//47 34//47
f 26//48 33//48 7//48
f 26//49 23//49 33//49
f 23//50 11//50 33//50
f 31//51 32//51 10//51
f 31//52 22//52 32//52
f 22//53 5//53 32//53
f 29//54 30//54 9//54
f 29//55 21//55 30//55
f 21//56 4//56 30//56
f 27//57 28//57 8//57
f 27//58 19//58 28//58
f 19//59 3//59 28//59
f 25//60 26//60 7//60
f 25//61 15//61 26//61
f 15//62 2//62 26//62
f 23//63 24//63 11//63
f 23//64 16//64 24//64
f 16//65 6//65 24//65
f 17//66 22//66 6//66
f 17//67 20//67 22//67
f 20//68 5//68 22//68
f 20//69 21//69 5//69
f 20//70 18//70 21//70
f 18//71 4//71 21//71
f 18//72 19//72 4//72
f 18//73 13//73 19//73
f 13//74 3//74 19//74
f 16//75 17//75 6//75
f 16//76 14//76 17//76
f 14//77 1//77 17//77
f 13//78 15//78 3//78
f 13//79 14//79 15//79
f 14//80 2//80 15//80
o Plane
v -10.000000 0.000000 10.000000
v 10.000000 0.000000 10.000000
v -10.000000 0.000000 -10.000000
v 10.000000 0.000000 -10.000000
vn 0.0000 1.0000 0.0000
usemtl None
s off
f 44//81 45//81 43//81
f 44//81 46//81 45//81
o Cube.001
v -0.358806 0.357450 -1.702352
v -0.656461 1.897162 -0.461107
v -1.154250 1.413469 -3.203049
v -1.451904 2.953181 -1.961805
v 1.451904 1.074465 -2.157564
v 1.154250 2.614177 -0.916320
v 0.656461 2.130484 -3.658262
v 0.358806 3.670196 -2.417017
vn -0.9054 -0.3585 0.2276
vn -0.3977 0.5280 -0.7503
vn 0.9054 0.3585 -0.2276
vn 0.3977 -0.5280 0.7503
vn 0.1488 -0.7699 -0.6206
vn -0.1488 0.7699 0.6206
usemtl None
s off
f 47//82 50//82 49//82
f 50//83 53//83 49//83
f 54//84 51//84 53//84
f 52//85 47//85 51//85
f 53//86 47//86 49//86
f 54//87 48//87 52//87
f 47//82 48//82 50//82
f 50//83 54//83 53//83
f 54//84 52//84 51//84
f 52//85 48//85 47//85
f 53//86 51//86 47//86
f 54//87 50//87 48//87
o Cube
v 1.000000 2.674206 2.180515
v 1.000000 2.674206 4.180515
v -1.000000 2.674206 4.180515
v -1.000000 2.674206 2.180515
v 1.000000 4.674206 2.180516
v 0.999999 4.674206 4.180516
v -1.000000 4.674206 4.180515
v -1.000000 4.674206 2.180515
vn 0.0000 -1.0000 0.0000
vn 0.0000 1.0000 0.0000
vn 1.0000 -0.0000 0.0000
vn 0.0000 -0.0000 1.0000
vn -1.0000 -0.0000 -0.0000
vn 0.0000 0.0000 -1.0000
usemtl Material
s off
f 56//88 58//88 55//88
f 62//89 60//89 59//89
f 59//90 56//90 55//90
f 60//91 57//91 56//91
f 61//92 58//92 57//92
f 55//93 62//93 59//93
f 56//88 57//88 58//88
f 62//89 61//89 60//89
f 59//90 60//90 56//90
f 60//91 61//91 57//91
f 61//92 62//92 58//92
f 55//93 58//93 62//93
